# xmcd
#
# Track frame offsets:
#	150
#	19546
#	40319
#	55393
#	77603
#	104749
#	118772
#	138297
#	153322
#	177752
#	197748
#
# Disc length: 2880 seconds
#
# Revision: 0
# Processed by: cddbd v1.5.2PL0 Copyright (c) Steve Scherf et al.
# Submitted via: EasyCDDAExtractor 16.0.6.1
#
DISCID=8e0b3e0b
DTITLE=RENATO MARTINS E ROBERTO DIDIO - GERAIS
DYEAR=1900
DGENRE=
TTITLE0=RENATO MARTINS E ROBERTO DIDIO - 	01 GERAIS
TTITLE1=RENATO MARTINS E ROBERTO DIDIO - 02 SAUDADES DO MEU AVO
TTITLE2=RENATO MARTINS E ROBERTO DIDIO - 03 NOITE DE 77
TTITLE3=RENATO MARTINS E ROBERTO DIDIO - 04 PARA ALEM DA VIDA INTEIRA 
TTITLE4=RENATO MARTINS E ROBERTO DIDIO - 05 ESPADA DE SAO JORGE 
TTITLE5=RENATO MARTINS E ROBERTO DIDIO  - 06 ROSA PRETA E BRANCA 
TTITLE6=RENATO MARTINS E ROBERTO DIDIO - 07 CORISCO
TTITLE7=RENATO MARTINS E ROBERTO DIDIO - 08 SAMBA PRO MAGRO
TTITLE8=RENATO MARTINS E ROBERTO DIDIO - 09 PARQUES DE PAULINHO NOGUEIRA
TTITLE9=RENATO MARTINS E ROBERTO DIDIO - 10 MAR NEGRO
TTITLE10=RENATO MARTINS E ROBERTO DIDIO  - 11 HINO DO FUTEBOL MODERNO
EXTD=
EXTT0=
EXTT1=
EXTT2=
EXTT3=
EXTT4=
EXTT5=
EXTT6=
EXTT7=
EXTT8=
EXTT9=
EXTT10=
PLAYORDER=
